<svg width="12" height="12" viewBox="0 0 12 12" fill="none" xmlns="http://www.w3.org/2000/svg">
<path d="M4.65 8.925C4.65 9.23651 4.55763 9.54102 4.38457 9.80002C4.2115 10.059 3.96552 10.2609 3.67773 10.3801C3.38993 10.4993 3.07325 10.5305 2.76773 10.4697C2.46221 10.409 2.18158 10.259 1.96131 10.0387C1.74104 9.81843 1.59104 9.53779 1.53026 9.23227C1.46949 8.92675 1.50068 8.61007 1.61989 8.32227C1.7391 8.03448 1.94097 7.7885 2.19998 7.61544C2.45899 7.44237 2.7635 7.35 3.075 7.35H8.925C9.23651 7.35 9.54102 7.44237 9.80002 7.61544C10.059 7.7885 10.2609 8.03448 10.3801 8.32227C10.4993 8.61007 10.5305 8.92675 10.4697 9.23227C10.409 9.53779 10.259 9.81843 10.0387 10.0387C9.81843 10.259 9.53779 10.409 9.23227 10.4697C8.92675 10.5305 8.61007 10.4993 8.32227 10.3801C8.03448 10.2609 7.7885 10.059 7.61544 9.80002C7.44237 9.54102 7.35 9.23651 7.35 8.925V3.075C7.35 2.7635 7.44237 2.45899 7.61544 2.19998C7.7885 1.94097 8.03448 1.7391 8.32227 1.61989C8.61007 1.50068 8.92675 1.46949 9.23227 1.53026C9.53779 1.59104 9.81843 1.74104 10.0387 1.96131C10.259 2.18158 10.409 2.46221 10.4697 2.76773C10.5305 3.07325 10.4993 3.38993 10.3801 3.67773C10.2609 3.96552 10.059 4.2115 9.80002 4.38457C9.54102 4.55763 9.23651 4.65 8.925 4.65H3.075C2.7635 4.65 2.45899 4.55763 2.19998 4.38457C1.94097 4.2115 1.7391 3.96552 1.61989 3.67773C1.50068 3.38993 1.46949 3.07325 1.53026 2.76773C1.59104 2.46221 1.74104 2.18158 1.96131 1.96131C2.18158 1.74104 2.46221 1.59104 2.76773 1.53026C3.07325 1.46949 3.38993 1.50068 3.67773 1.61989C3.96552 1.7391 4.2115 1.94097 4.38457 2.19998C4.55763 2.45899 4.65 2.7635 4.65 3.075V8.925Z" stroke="#231F20"/>
</svg>
