<svg width="18" height="18" viewBox="0 0 18 18" fill="none" xmlns="http://www.w3.org/2000/svg">
<path d="M1 9C1 13.4184 4.5816 17 9 17C13.4184 17 17 13.4184 17 9C17 4.5816 13.4184 1 9 1C4.5816 1 1 4.5816 1 9Z" stroke="black" stroke-width="1.3" stroke-linecap="round" stroke-linejoin="round"/>
<path d="M9.79991 1.03998C9.79991 1.03998 12.1999 4.19998 12.1999 8.99998C12.1999 13.8 9.79991 16.96 9.79991 16.96M8.19991 16.96C8.19991 16.96 5.79991 13.8 5.79991 8.99998C5.79991 4.19998 8.19991 1.03998 8.19991 1.03998M1.50391 11.8H16.4959M1.50391 6.19998H16.4959" stroke="black" stroke-width="1.3" stroke-linecap="round" stroke-linejoin="round"/>
</svg>
