<svg width="30" height="21" viewBox="0 0 30 21" fill="none" xmlns="http://www.w3.org/2000/svg">
<rect width="30" height="21" rx="4" fill="#D2D6DC"/>
<path d="M8.65 13.425C8.65 13.7365 8.55763 14.041 8.38457 14.3C8.2115 14.559 7.96552 14.7609 7.67773 14.8801C7.38993 14.9993 7.07325 15.0305 6.76773 14.9697C6.46221 14.909 6.18158 14.759 5.96131 14.5387C5.74104 14.3184 5.59104 14.0378 5.53026 13.7323C5.46949 13.4267 5.50068 13.1101 5.61989 12.8223C5.7391 12.5345 5.94097 12.2885 6.19998 12.1154C6.45899 11.9424 6.7635 11.85 7.075 11.85H12.925C13.2365 11.85 13.541 11.9424 13.8 12.1154C14.059 12.2885 14.2609 12.5345 14.3801 12.8223C14.4993 13.1101 14.5305 13.4267 14.4697 13.7323C14.409 14.0378 14.259 14.3184 14.0387 14.5387C13.8184 14.759 13.5378 14.909 13.2323 14.9697C12.9267 15.0305 12.6101 14.9993 12.3223 14.8801C12.0345 14.7609 11.7885 14.559 11.6154 14.3C11.4424 14.041 11.35 13.7365 11.35 13.425V7.575C11.35 7.2635 11.4424 6.95899 11.6154 6.69998C11.7885 6.44097 12.0345 6.2391 12.3223 6.11989C12.6101 6.00068 12.9267 5.96949 13.2323 6.03026C13.5378 6.09104 13.8184 6.24104 14.0387 6.46131C14.259 6.68158 14.409 6.96221 14.4697 7.26773C14.5305 7.57325 14.4993 7.88993 14.3801 8.17773C14.2609 8.46552 14.059 8.7115 13.8 8.88457C13.541 9.05763 13.2365 9.15 12.925 9.15H7.075C6.7635 9.15 6.45899 9.05763 6.19998 8.88457C5.94097 8.7115 5.7391 8.46552 5.61989 8.17773C5.50068 7.88993 5.46949 7.57325 5.53026 7.26773C5.59104 6.96221 5.74104 6.68158 5.96131 6.46131C6.18158 6.24104 6.46221 6.09104 6.76773 6.03026C7.07325 5.96949 7.38993 6.00068 7.67773 6.11989C7.96552 6.2391 8.2115 6.44097 8.38457 6.69998C8.55763 6.95899 8.65 7.2635 8.65 7.575V13.425Z" stroke="#231F20"/>
<path d="M20.43 7.33H18.7V14H20.43V11.11L22.69 14H24.93L22.04 10.49L24.69 7.33H22.55L20.43 10.08V7.33Z" fill="#231F20"/>
</svg>
